<svg width="64" height="64" xmlns="http://www.w3.org/2000/svg" fill="none">
 <g>
  <title>Layer 1</title>
  <path id="svg_1" fill="#6E29F5" d="m56.20685,19.3231l-23.055,0c-1.2745,0 -2.3036,1.03397 -2.3036,2.30358l0,6.91553c0,1.27439 -1.0292,2.30359 -2.3036,2.30359l-20.75143,0c-1.27443,0 -2.30357,1.034 -2.30357,2.3036l0,9.2239c0,1.2744 1.03395,2.3036 2.30357,2.3036l23.05503,0c1.2744,0 2.3036,-1.034 2.3036,-2.3036l0,-6.9155c0,-1.2745 1.0291,-2.3036 2.3035,-2.3036l20.7515,0c1.2744,0 2.3035,-1.034 2.3035,-2.3036l0,-9.22392c0,-1.27442 -1.0339,-2.30358 -2.3035,-2.30358z"/>
 </g>
</svg>