<svg t="1746598899765" class="icon" viewBox="0 0 1024 1024" version="1.1" xmlns="http://www.w3.org/2000/svg" p-id="2130" width="256" height="256"><path d="M721.92 654.048C740.64 672.768 740.64 703.2 721.92 721.92 703.2 740.672 672.768 740.672 654.048 721.92L511.968 579.872 369.92 721.92C351.2 740.672 320.768 740.672 302.048 721.92 283.296 703.2 283.296 672.768 302.048 654.048L444.096 512 302.048 369.92C283.296 351.2 283.296 320.768 302.048 302.048 320.768 283.328 351.2 283.328 369.92 302.048L511.968 444.096 654.048 302.048C672.768 283.328 703.2 283.328 721.92 302.048 740.64 320.768 740.64 351.2 721.92 369.92L579.872 512 721.92 654.048ZM895.84 0 128.128 0C57.248 0 0 57.376 0 128.128L0 895.872C0 966.752 57.344 1024 128.128 1024L895.84 1024C966.752 1024 1024 966.624 1024 895.872L1024 128.128C1024 57.248 966.624 0 895.84 0" p-id="2131" fill="#e6e6e6"></path></svg>