<svg t="1746675097840" class="icon" viewBox="0 0 1024 1024" version="1.1" xmlns="http://www.w3.org/2000/svg" p-id="2448" width="256" height="256"><path d="M995.474286 446.902857a569.782857 569.782857 0 0 0-95.817143-134.034286 540.708571 540.708571 0 0 0-775.314286 0 569.782857 569.782857 0 0 0-95.817143 134.034286 143.36 143.36 0 0 0 0 130.194286 569.782857 569.782857 0 0 0 95.817143 134.034286 540.708571 540.708571 0 0 0 775.314286 0 569.782857 569.782857 0 0 0 95.817143-134.034286 143.36 143.36 0 0 0 0-130.194286zM512 676.571429a164.571429 164.571429 0 1 1 164.571429-164.571429 164.571429 164.571429 0 0 1-164.571429 164.571429z" fill="#e6e6e6" p-id="2449"></path></svg>